# xmcd CD database file
#
# Track frame offsets:
#	150
#	19605
#	38379
#	55873
#	73748
#	97490
#	115688
#	132067
#	151583
#	169793
#	186313
#	203272
#
# Disc length: 3014 seconds
#
# Revision: 0
# Processed by: cddbd v1.5.2PL0 Copyright (c) Steve Scherf et al.
# Submitted via: CDex 1.51
#
DISCID=920bc40c
DTITLE=Bowen, Wade - If We Ever Make it Home
DYEAR=2008
DGENRE=Country
TTITLE0=You Had Me at My Best
TTITLE1=If We Ever Make it Home
TTITLE2=Turn on the Lights
TTITLE3=Ghost in This Town
TTITLE4=Why Makes Perfect Sense
TTITLE5=Trouble
TTITLE6=Nobody's Fool
TTITLE7=Into the Arms of You
TTITLE8=From Bad to Good
TTITLE9=Missing You
TTITLE10=Daddy and the Devil
TTITLE11=Somewhere Beautiful
EXTD=YEAR: 2008
EXTT0=
EXTT1=
EXTT2=
EXTT3=
EXTT4=
EXTT5=
EXTT6=
EXTT7=
EXTT8=
EXTT9=
EXTT10=
EXTT11=
PLAYORDER=
